<?xml version="1.0" encoding="UTF-8"?>
<svg id="Layer_1" xmlns="http://www.w3.org/2000/svg" version="1.1" viewBox="0 0 514.5 628">
  <!-- Generator: Adobe Illustrator 29.5.1, SVG Export Plug-In . SVG Version: 2.1.0 Build 141)  -->
  <defs>
    <style>
      .st0 {
        fill: red;
      }
    </style>
  </defs>
  <path class="st0" d="M118.5,68.9s0,0,0,0c-10.3.3-20.7.6-31,1-5.5.2-10.3,6-10.5,12.7-.9,26.5-1.7,52.4-2.3,77.6-3.8-.3-7.7-.8-11.5-1.3.7-28,1.6-56.8,2.7-86.3,0-1.1-.7-2-1.6-1.9-11.3.5-22.7.9-34,1.5-8.1.5-15,7.4-15.4,15.4-.4,8.4-.8,16.8-1.1,25.2,0,.8.5,1.6,1.3,1.9,0,0,.2,0,.3,0,.7.1,1.4-.2,1.6-.9,0-.2,2.5-5.1,13-4.6-.6,14.5-1.1,28.9-1.5,43.3-.4-.1-.8-.2-1.3-.3-8.3-2-14.9,2.4-15.2,10.5-.3,8.3-.5,16.5-.7,24.8,0,.8.5,1.8,1.3,2.3.1,0,.2.1.3.2.7.3,1.3.2,1.6-.4,0-.2,2.4-4,13-.8-3.1,129.5-1.2,251.5,4,365.9,0,.9.8,1.6,1.7,1.6,10.3.5,20.7.9,31,1.3.9,0,1.6-.5,1.6-1.3-3.9-100.7-6.2-220.2-3.6-358.4,1.3.2,2.6.5,3.8.7,2.7.5,5.2.3,7.7-.5-2.4,140.9-.2,260.5,3.4,358.8,0,.7.8,1.3,1.7,1.4,7.6.3,15.1.5,22.7.8,5.5.2,10-3.1,9.8-7.4-2.7-95-4.6-214.4-2.5-358.2,0,0,0,0,0-.1-.2-4.2-2-11.2-7-14.7,5.2-3.3,7.2-10.4,7.5-14.7,0,0,0,0,0-.1.3-14,.5-28.2.9-42.6.2-7.2-4.1-12.8-9.7-12.8,11.1-6.7,18.9-20.8,19.4-37.1,0,0,0-.1,0-.2,0-1.2-.7-2.1-1.6-2.1ZM118.8,71.1c-.5,18.9-11.3,34.7-25.4,38.7,2.4,0,4.7,0,7.1,0,5,0,8.7,4.9,8.6,11.3-.3,14.4-.6,28.7-.9,42.7,0,.1-1,12.4-9.6,14.7,8.5,2.8,9.1,14.7,9.1,14.9-2.1,143.8-.2,263.2,2.5,358.2.1,3.7-3.8,6.6-8.6,6.5-7.6-.2-15.1-.5-22.7-.8-.2,0-.4-.2-.4-.3-3.5-98.6-5.8-218.9-3.4-360.9-2.9,1.4-5.8,1.7-9,1.2-1.7-.3-3.4-.6-5.1-.9-2.6,138.6-.3,258.6,3.6,360,0,.2-.2.3-.4.3-10.4-.4-20.7-.9-31.1-1.5-.2,0-.4-.2-.4-.4-5.2-114.2-7.1-236.5-4-366.9-12.7-4.2-15.4.6-15.4.7,0,.1-.2.2-.4,0,0,0,0,0,0,0-.2-.1-.3-.4-.3-.6.2-8.3.5-16.6.7-24.9.2-7.5,6.3-11.5,13.9-9.6.8.2,1.7.4,2.5.6.5-15.3,1-30.7,1.6-46.2-12.6-1-15.4,5.2-15.4,5.3,0,.2-.2.2-.4.2,0,0,0,0,0,0-.2,0-.3-.3-.3-.5.3-8.4.7-16.9,1.1-25.3.3-7.3,6.7-13.7,14.1-14.1,11.3-.5,22.7-.9,34-1.3.2,0,.4.2.4.5-1.2,29.9-2.1,59.1-2.8,87.5,4.7.6,9.3,1.1,14,1.6.6-25.7,1.3-52.1,2.3-79.2.2-5.9,4.3-11,9.2-11.1,10.4-.3,20.7-.7,31.1-1,0,0,0,0,0,0,.2,0,.4.2.4.5,0,0,0,0,0,0Z"/>
  <path class="st0" d="M174.3,117.7c-.2,13.8-.3,27.4-.5,40.9,4.7-.6,9.4-1.2,14.1-1.9.1-16.5.3-33.1.5-50-6.4.5-12.7,1-19.1,1.4,3,1.5,5,5.2,5,9.7ZM187.2,108.3c-.2,15.9-.3,31.7-.5,47.2-3.8.5-7.7,1.1-11.5,1.5.1-13,.3-26.1.5-39.4,0-3.3-.9-6.2-2.5-8.3,4.7-.3,9.4-.7,14.1-1.1Z"/>
  <path class="st0" d="M228.8,67s0,0,0,0c-29.4.2-58.7.6-88.1,1.3-8.1.2-14.9,8.8-15.2,19-.3,10.6-.5,21-.7,31.4,0,1,.6,1.8,1.4,2,0,0,.2,0,.3,0,.7,0,1.4-.6,1.6-1.4,0-.3,2.4-6.8,13-7.9-.3,16.7-.6,33.1-.8,49.2-.4,0-.9,0-1.3,0-8.4.6-15,8.5-15.2,18.2-.1,9.7-.3,19.3-.4,28.9,0,.9.6,1.7,1.4,1.8.1,0,.2,0,.3,0,.7,0,1.3-.6,1.6-1.3,0-.3,2.3-5.9,13-7.3-1.5,142.9,0,262.2,2.2,357.9,0,.7.8,1.3,1.7,1.3,10.3.2,20.7.5,31,.6.9,0,1.7-.6,1.6-1.3-1.6-102-2.6-223-1.5-363,1.3-.2,2.6-.4,3.9-.6,2.7-.5,5.2-1.5,7.7-3-1,139.3-.2,261.6,1.3,366.8,0,.8.8,1.4,1.7,1.4,10.3.1,20.7.3,31,.3.9,0,1.7-.7,1.7-1.5-1-139-1.2-291.1-.2-456.3,0-1-.7-1.8-1.7-1.7-2.8.2-5.5.5-8.3.7,10.9-7,18.5-19.5,18.6-33.5,0,0,0,0,0-.1,0-1-.7-1.8-1.7-1.8ZM229.2,68.9c-.1,16.2-10.6,30.5-24.6,35.5,5.2-.4,10.4-.9,15.6-1.3.2,0,.4.2.4.4-1,165.7-.8,317.7.2,456.2,0,.2-.2.4-.4.4-10.4,0-20.7-.1-31-.2-.2,0-.4-.2-.4-.4-1.4-106.2-2.2-229.3-1.2-369.3-2.9,2.2-5.8,3.5-9,4.1-1.7.3-3.4.6-5.1.8-1.1,140.8-.1,262.2,1.5,364.2,0,.2-.2.3-.4.3-10.3-.2-20.7-.3-31-.6-.2,0-.4-.2-.4-.3-2.2-96.2-3.7-216.1-2.2-359.5-12.8,1.2-15.5,8.4-15.5,8.5,0,.2-.2.3-.4.3,0,0,0,0,0,0-.2,0-.3-.2-.3-.5.1-9.5.2-19.1.4-28.9.1-8.9,6.2-16.1,13.9-16.7.9,0,1.7-.1,2.6-.2.2-17.1.5-34.5.9-52.3-12.7.8-15.4,9-15.4,9.1,0,.2-.2.3-.4.4,0,0,0,0,0,0-.2,0-.3-.2-.3-.5.2-10.3.5-20.8.7-31.4.2-9.3,6.5-17.2,13.9-17.3,29.4-.7,58.8-1.3,88.1-1.5,0,0,0,0,0,0,.2,0,.4.2.4.5,0,0,0,0,0,0Z"/>
  <path class="st0" d="M385.3,68.7s0,0,0,0c-45.2-1.2-90.3-1.8-135.5-1.7-8.1,0-14.7,7.1-14.7,15.9,0,9.1,0,18.1-.1,27.1,0,.9.6,1.6,1.4,1.6,0,0,.2,0,.3,0,.7,0,1.3-.6,1.6-1.4,0-.2,2.3-6.1,12.8-7.5-.1,154.5-.1,306.8,0,457.1,0,.9.8,1.7,1.7,1.7,10.3,0,20.7,0,31,0,.9,0,1.7-.8,1.7-1.9.9-161.7.9-312.7.2-453,0-2.7-1-5-2.7-6.6,4.7-.4,9.4-.7,14.1-1.1,1,138.4,1.1,291.9-.2,460.6,0,1,.7,1.9,1.7,1.9,10.3,0,20.7-.2,31-.4.9,0,1.7-.9,1.7-2,2.6-177.2,2.1-329.3.5-456.1,0-2.4-1.1-4.5-2.7-6,5.1-.3,10.2-.5,15.3-.7,1.9,124.9,2.8,279.1-.4,462.5,0,1.1.7,2,1.6,2,10.3-.2,20.7-.4,31-.7.9,0,1.7-1,1.7-2.2,4.5-185.9,3.2-338.1.7-456.6-.1-4.7-4.5-8.3-10-8.4,10.9-4.4,18.3-12.9,18.1-22.7,0,0,0,0,0,0,0-.7-.8-1.3-1.7-1.3ZM385.7,70c.3,11.3-10,20.9-24.1,23.9,2.3,0,4.7,0,7,0,5,0,8.9,3.2,9,7.4,2.5,118.6,3.8,270.8-.7,456.7,0,.3-.2.5-.4.5-10.4.3-20.7.5-31.1.7-.2,0-.4-.2-.4-.5,3.3-184.2,2.4-338.7.4-463.6-6.8.2-13.5.5-20.3.9,3.1,1.1,5.2,3.7,5.2,7,1.6,127.1,2.1,279.1-.5,456,0,.3-.2.5-.4.5-10.4.2-20.7.3-31.1.5-.2,0-.4-.2-.4-.5,1.4-169.6,1.2-323.5.2-461.8-6.3.5-12.7.9-19,1.4,3,1.2,5.1,4,5.1,7.7.7,140.7.7,291.7-.2,452.9,0,.3-.2.5-.4.5-10.4,0-20.7.2-31.1.2-.2,0-.4-.2-.4-.4-.1-151.2-.1-304,0-458.5-12.6,1.2-15.2,8.6-15.3,8.7,0,.2-.2.3-.4.3,0,0,0,0,0,0-.2,0-.3-.2-.3-.4,0-9,0-18,0-27.1,0-8,6.1-14.6,13.5-14.6,45.2-.2,90.4.2,135.5,1.4,0,0,0,0,0,0,.2,0,.4.2.4.3,0,0,0,0,0,0Z"/>
  <path class="st0" d="M242.3,103.8c-1.4.8-2.5,1.7-3.4,2.6,0,0,0,0-.1.1-1.7,1.8-2.2,3.3-2.2,3.3h0s2.6-7.9,16.1-9t0,0c-4.7.4-8,1.6-10.4,3Z"/>
  <path class="st0" d="M376.4,86.8c-.9.7-1.9,1.3-2.9,2-.6.4-1.2.7-1.8,1,1.7-.9,3.2-1.9,4.6-3Z"/>
  <path class="st0" d="M369.2,91.1c-.3.1-.6.2-.9.3-.6.2-1.2.5-1.9.7.9-.3,1.8-.7,2.7-1.1Z"/>
  <path class="st0" d="M475,100.1c1.9-.2,3.8-.7,5.5-1.3-.8.3-1.6.5-2.5.7-.3,0-.6.1-1,.2-.7.1-1.4.3-2.1.4Z"/>
  <path class="st0" d="M497.4,74.8s0,0,0-.1c0-.9-.8-1.7-1.7-1.8,0,0,0,0,0,0-29.4-1.5-58.7-2.7-88.1-3.6-8.1-.3-14.5,4.5-14.4,10.8.2,6.5.3,13.1.5,19.8,0,.7.6,1.2,1.4,1.4,0,0,.2,0,.3,0,.7,0,1.3-.3,1.6-.9,0-.2,2.1-4.4,12.6-4.3.3,10.8.6,21.9.9,33.3-.4,0-.9,0-1.3,0-8.3-.5-14.7,4.9-14.6,11.9.1,7.1.3,14.2.4,21.5,0,.7.6,1.3,1.4,1.5.1,0,.2,0,.3,0,.7,0,1.3-.4,1.6-.9,0-.1,2.2-4.6,12.8-4.4,2.1,108.4,2.6,241.1-2.2,397.9,0,1.2.7,2.1,1.6,2.1,10.3-.3,20.7-.7,31-1.1.9,0,1.7-1,1.7-2.1,5.7-150.4,5.4-281.1,2.8-392.1,1.3.3,2.6.5,3.9.8,2.7.6,5.2.8,7.7.5,2.8,113.1,2.9,243.2-3,390.4,0,1.1.7,1.9,1.6,1.9,10.3-.4,20.7-.9,31-1.4.9,0,1.7-.9,1.8-1.8,7.4-156.1,7.4-306.1,1.3-450.1,0-.9-.8-1.8-1.8-1.9-2.8-.5-5.6-1-8.3-1.4,10.7-3,17.8-12.9,17.2-25.9ZM473,100.6c5.2.8,10.4,1.7,15.6,2.6.2,0,.4.3.4.5,6,143.2,6.1,293.4-1.3,450.4,0,.2-.2.4-.4.5-10.3.4-20.7.8-31,1.2-.2,0-.4-.2-.4-.5,6-147.4,5.9-278,3-391.8-2.9.6-5.7.6-8.9-.2-1.7-.4-3.4-.7-5.1-1.1,2.6,111.1,2.9,242.3-2.8,393.6,0,.3-.2.5-.4.5-10.4.4-20.7.7-31.1,1-.2,0-.4-.2-.4-.5,4.9-157.3,4.4-290.3,2.2-399-12.8-.7-15.2,5-15.3,5,0,.1-.2.2-.4.2,0,0,0,0,0,0-.2,0-.4-.2-.4-.4-.1-7.3-.3-14.4-.4-21.5-.1-6.4,5.7-11.3,13.3-10.9.8,0,1.7,0,2.5.1-.3-12.1-.6-23.9-.9-35.4-12.6-.4-15,4.9-15.1,4.9,0,.1-.2.2-.4.2,0,0,0,0,0,0-.2,0-.4-.2-.4-.3-.2-6.7-.3-13.3-.5-19.8-.1-5.7,5.7-10.1,13.1-9.9,29.4.9,58.7,2.2,88.1,3.9,0,0,0,0,0,0,.2,0,.4.2.4.4,0,0,0,0,0,0,.7,15-9.2,25.5-23.1,26Z"/>
  <path class="st0" d="M400.2,96.2c-.8.3-1.5.6-2,1-.3.2-.5.3-.8.5,0,0,0,0,0,0-.2.2-.4.3-.6.5,1.9-1.6,6-3.7,14.4-3.3t0,0c-5.1-.2-8.6.4-11,1.4Z"/>
  <path class="st0" d="M487.6,94.9c-.9.7-1.8,1.3-2.7,1.9-.6.3-1.1.7-1.7,1,2.4-1.2,4.6-2.7,6.4-4.7-.6.6-1.2,1.2-1.9,1.8Z"/>
  <path class="st0" d="M443.1,104.5c.3,9.7.6,19.6.9,29.7,4.7.8,9.4,1.7,14.1,2.7-.4-12.8-.8-25.4-1.2-37.8-6.4-.8-12.7-1.5-19.1-2.1,3.1,1.5,5.3,4.3,5.4,7.5ZM455.6,100c.4,11.6.8,23.4,1.2,35.5-3.8-.8-7.7-1.5-11.5-2.2-.3-9.7-.6-19.3-.9-28.7,0-2.3-1.1-4.5-2.9-6.2,4.7.5,9.4,1,14.1,1.6Z"/>
  <path class="st0" d="M465.7,99.9s0,0,0,0c3.3.5,6.4.5,9.3.1-.5,0-1,0-1.5.1-2.5.2-5.1.1-7.8-.3Z"/>
  <path class="st0" d="M78.8,80.5c.3-1.3.8-2.6,1.4-3.7-.6,1.1-1.1,2.4-1.4,3.7Z"/>
  <path class="st0" d="M81.3,75.2c.3-.4.7-.7,1.1-1.1.5-.5,1.1-.9,1.7-1.2-1,.6-2,1.4-2.7,2.3Z"/>
  <path class="st0" d="M118.4,71c-10.4.3-20.7.6-31.1,1-1.2,0-2.3.4-3.3.9-.6.3-1.2.8-1.7,1.2-2.2,2-3.7,5-3.8,8.4-.9,27.3-1.7,53.9-2.3,79.8-5-.4-9.9-1-14.9-1.7.7-28.6,1.6-57.9,2.8-87.9,0,0,0,0,0,0-11.3.4-22.7.8-34,1.3t0,0c-1.3,0-2.6.3-3.9.8-.8.3-1.6.7-2.4,1.1-1.5.9-2.9,2-4,3.4-.8,1-1.6,2.1-2.1,3.3-.7,1.6-1.2,3.3-1.3,5.1-.4,8.5-.8,16.9-1.1,25.4,0,0,0,0,0,0,0,0,.4-1,1.6-2.1-.2.2-.4.4-.5.5.5-.5,1.1-1.1,2-1.7-.3.2-.6.4-.8.6,1-.8,2.4-1.5,4.3-2.1-.5.1-.9.3-1.3.5,2.5-1,6-1.7,11.1-1.2,0,0,0,0,0,0-.6,15.8-1.2,31.5-1.6,47.1-1-.2-2-.5-3-.7-4.9-1.3-9.3.1-11.7,3.5-1.1,1.5-1.7,3.5-1.8,5.9-.3,8.3-.5,16.6-.7,24.9,0,0,2.7-5.3,16.2-.7-3.1,130.7-1.2,253.1,4,367.2,10.4.6,20.7,1.1,31.1,1.5,0,0,0,0,0,0-4-101.6-6.3-221.8-3.6-360.5,1.8.3,3.7.7,5.5,1,3.4.6,6.4,0,9.4-1.5-2.5,142.5-.2,263,3.3,361.7,7.6.3,15.1.6,22.7.8,4.6.1,8.3-2.6,8.2-6.2-2.7-95-4.6-214.4-2.5-358.2,0,0-.2-5.7-3.2-10.1-.3-.4-.6-.9-1-1.3-1.8-2-4.3-3.5-7.9-3.7,3.6.1,6.2-1.2,8-3.2.4-.4.7-.8,1-1.2,3.1-4.3,3.6-10.2,3.6-10.2.3-14,.6-28.2.9-42.6.1-6.2-3.5-10.8-8.2-10.8,0,0,0,0,0,0,3.5,0,6.4,2.6,7.6,6.5-1.2-3.9-4.1-6.5-7.6-6.5-4.8,0-9.6,0-14.4,0,5.4,0,10.5-1.6,15-4.6,1.8-1.2,3.5-2.6,5.1-4.2-.8.8-1.6,1.6-2.5,2.3,2.5-2.1,4.8-4.7,6.8-7.6-1.3,1.9-2.8,3.7-4.4,5.3,7.1-7.2,11.8-18.1,12.1-30.5,0,0,0,0,0,0Z"/>
  <path class="st0" d="M140.6,70.4c-.9,0-1.8.2-2.6.4-4.2,1.2-7.8,5-9.6,10-.4,1-.6,2-.8,3.1-.2,1.1-.3,2.2-.3,3.3-.3,10.6-.5,21-.7,31.3,0,0,0,0,0,0,0,0,.4-1.2,1.6-2.8-.2.3-.4.5-.5.8.5-.7,1.1-1.6,2-2.4-.3.3-.6.6-.8.9,1-1.1,2.4-2.3,4.2-3.3-.5.3-.9.5-1.3.8,2.5-1.6,6-3,11.1-3.3,0,0,0,0,0,0-.3,18.1-.6,35.9-.9,53.3-1,0-2,.1-3,.2-5,.3-9.4,3.6-11.7,8.6-.2.4-.4.9-.6,1.4-.4.9-.6,1.9-.8,3-.2,1-.3,2.1-.3,3.2-.1,9.7-.3,19.3-.4,28.9,0,0,2.7-7.7,16.4-8.9-1.5,143.7,0,263.7,2.2,360.1,10.4.2,20.7.4,31.1.6-1.7-102-2.7-223.6-1.5-364.6,1.9-.3,3.7-.6,5.6-.9,0,0,0,0,0,0,3.4-.6,6.4-2.1,9.4-4.5-1,140.3-.2,263.7,1.2,370.2,10.4.1,20.7.2,31.1.2t0,0c-1-138.3-1.3-290.4-.2-456.2t0,0s0,0,0,0c-7.6.7-15.2,1.3-22.8,1.9,5.4-.4,10.5-2.4,15-5.4.9-.6,1.8-1.3,2.6-1.9,2.5-2.1,4.8-4.5,6.7-7.1,4.5-6.2,7.2-13.9,7.2-22.1-29.4.3-58.8.8-88.1,1.6ZM188.9,106.2c-.2,17.2-.4,34.2-.5,51-5,.7-9.9,1.4-14.9,2,.1-13.6.3-27.4.5-41.4,0-1.5-.2-2.9-.6-4.1-1.2-3.7-4.2-6.1-7.7-5.8,7.8-.5,15.5-1.1,23.3-1.7h0Z"/>
  <path class="st0" d="M127.6,83.9c.2-1.1.5-2.1.8-3.1-.4,1-.6,2-.8,3.1Z"/>
  <path class="st0" d="M249.8,68.7c-3.1,0-6,1.2-8.3,3.2-1.9,1.7-3.4,4.1-4.2,6.7.1-.4.3-.9.4-1.3-.3.8-.6,1.7-.8,2.6-.2.9-.3,1.9-.3,2.8,0,0,0,0,0,0,0-1,0-1.9.3-2.8,0-.5.2-.9.3-1.3-.4,1.3-.6,2.7-.6,4.2,0,9,0,18,0,27,0,0,.5-1.5,2.2-3.3,0,0,0,0,.1-.1.8-.9,1.9-1.8,3.4-2.6,2.4-1.4,5.7-2.6,10.4-3,0,0,0,0,0,0,0,0,0,0,0,0-.1,154.5,0,307.5,0,459t0,0c10.4,0,20.7-.1,31.1-.2.9-161,.8-312,.2-452.9,0-1.2-.2-2.3-.7-3.3-1.3-2.9-4.3-4.8-7.8-4.5,7.7-.6,15.5-1.2,23.2-1.7,0,0,0,0,0,0h0c1,138.2,1.2,292.3-.2,462.2t0,0c10.4-.1,20.7-.3,31.1-.5,2.6-176.8,2.1-328.8.5-456,0-1.1-.3-2.1-.7-3-.4-.9-1.1-1.7-1.8-2.3.3.3.6.5.8.8-1.6-1.8-4-2.9-6.8-2.7,8.1-.4,16.3-.8,24.4-1.1h0c2,124.8,2.9,279.5-.4,464,10.4-.2,20.7-.5,31.1-.7,0,0,0,0,0,0,4.5-185.8,3.2-338,.7-456.7,0-2-1-3.8-2.6-5.1.8.6,1.4,1.4,1.9,2.2-.9-1.7-2.5-3-4.6-3.7,1,.3,1.9.8,2.7,1.5-1.6-1.3-3.7-2-6-2-4.8,0-9.6.1-14.3.3,5.1-.1,9.8-1.2,14-2.9,1.9-.8,3.6-1.6,5.2-2.6,1.8-1.1,3.4-2.3,4.9-3.7.6-.6,1.2-1.2,1.8-1.9,3.3-3.8,5.2-8.4,5.1-13.3-45.2-1.2-90.4-1.5-135.5-1.3ZM282.5,102c-1.5-2.1-4.1-3.3-7-3.1,2.9-.2,5.5,1,7,3.1ZM321.4,95.7c1.2,0,2.3,0,3.3.4-1-.3-2.1-.5-3.3-.4h0ZM368.6,94.1c.6,0,1.1,0,1.7.1-.5,0-1.1-.1-1.7-.1,0,0,0,0,0,0Z"/>
  <path class="st0" d="M328.2,98.4c.4.5.7.9,1,1.5-.3-.5-.6-1-1-1.5Z"/>
  <path class="st0" d="M495.7,74.5c-29.4-1.7-58.8-3-88.1-4-2.2,0-4.3.3-6.1,1-.4.1-.7.3-1.1.5-1,.5-1.9,1.1-2.7,1.8-.8.7-1.4,1.5-1.9,2.4-.6,1.2-1,2.5-.9,3.9.2,6.5.3,13.1.5,19.8t0,0s.3-.8,1.5-1.8c-.2.2-.4.3-.5.5-.3.3-.5.6-.7.8.2-.2.4-.5.7-.8.3-.3.7-.6,1.1-1,0,0,0,0,0,0,.2-.2.5-.3.8-.5.6-.3,1.2-.7,2-1,2.4-.9,5.9-1.6,11-1.4,0,0,0,0,0,0t0,0c.3,11.7.6,23.7.9,36.1-1,0-2-.1-3-.2-5-.3-9.3,1.8-11.4,5.2-1,1.5-1.5,3.4-1.5,5.4.1,7.1.3,14.2.4,21.5,0,0,0-.2.3-.5.2-.2.4-.5.7-.8.1-.2.3-.3.5-.5,1.9-1.7,6.1-3.9,14.6-3.4,2.2,108.8,2.7,241.8-2.2,399.3t0,0c10.4-.3,20.7-.7,31.1-1,5.7-151.5,5.4-282.9,2.7-394,1.9.4,3.7.8,5.6,1.2,0,0,0,0,0,0,2.6.6,4.9.7,7.1.4.7,0,1.5-.2,2.2-.4,2.9,114,3,244.8-3,392.3,10.4-.4,20.7-.8,31-1.2,7.5-157.4,7.2-307.5,1.3-450.5,0,0,0,0,0,0,0,0,0,0,0,0-7.6-1.4-15.3-2.7-22.9-3.7,0,0,0,0,0,0,0,0,0,0,0,0,0,0,0,0,0,0,0,0,0,0,0,0,2.7.4,5.3.4,7.8.3,1.2,0,2.4-.2,3.6-.5.3,0,.7-.1,1-.2,2.5-.6,4.7-1.5,6.8-2.7,1-.6,1.9-1.2,2.7-1.9.7-.6,1.3-1.2,1.9-1.8,1.2-1.3,2.3-2.7,3.1-4.3,2.2-4,3.3-8.9,3.1-14.2t0,0ZM434,96.4s0,0,0,0c2.9.2,5.5,1.7,7.1,3.8-1.6-2.1-4.2-3.5-7.1-3.8ZM457.2,98.8c.5,12.6.9,25.5,1.3,38.5-5-1.1-10-2-14.9-2.8-.3-10.2-.6-20.2-.9-30,0-1.1-.3-2.1-.8-3-1.4-2.8-4.4-4.8-7.9-5.1,7.7.7,15.5,1.5,23.3,2.4,0,0,0,0,0,0Z"/>
</svg>